<svg width="76" height="29" viewBox="0 0 76 29" fill="none" xmlns="http://www.w3.org/2000/svg">
<path d="M51.4139 15.5875C51.4862 15.5875 51.5585 15.5875 51.5585 15.66C51.6308 15.7325 51.6308 15.7325 51.6308 15.805V21.895C51.6308 21.9675 51.6308 22.04 51.5585 22.04C51.4862 22.04 51.4862 22.1125 51.4139 22.1125H50.2569C50.1846 22.1125 50.1123 22.1125 50.1123 22.04C50.1123 22.04 50.0399 21.9675 50.0399 21.895V18.705C50.0399 18.705 50.0399 18.6325 49.9676 18.6325L49.0276 20.3C48.9553 20.445 48.8106 20.5175 48.666 20.5175H48.1598C48.0152 20.5175 47.9429 20.445 47.7983 20.3L46.8582 18.6325C46.8582 18.6325 46.7859 18.6325 46.7859 18.705V21.9675C46.7859 22.04 46.7859 22.1125 46.7136 22.185C46.7136 22.185 46.6413 22.2575 46.4967 22.2575H45.3397C45.2674 22.2575 45.195 22.2575 45.1227 22.185C45.0504 22.185 45.0504 22.1125 45.0504 21.9675V16.385C45.0504 16.24 45.0504 16.1675 45.1227 16.0225C45.195 15.95 45.2674 15.805 45.3397 15.805C45.412 15.805 45.4843 15.66 45.5566 15.66C45.6289 15.66 45.7012 15.5875 45.7735 15.5875H46.2797C46.4243 15.5875 46.569 15.66 46.6413 15.805L48.2321 18.6325L49.823 15.805C49.8953 15.66 50.04 15.5875 50.1846 15.5875H51.4139Z" fill="white"/>
<path d="M56.9096 22.2575C55.9695 22.2575 55.3187 22.04 54.8126 21.605C54.3064 21.17 54.0171 20.5175 54.0171 19.72C54.0171 19.5025 54.0171 19.285 54.0171 18.9225C54.0171 18.56 54.0171 18.27 54.0171 18.125C54.0171 17.255 54.3064 16.675 54.8126 16.24C55.3187 15.805 56.0419 15.515 56.9096 15.515C57.7773 15.515 58.5005 15.7325 59.0067 16.24C59.5128 16.675 59.8021 17.3275 59.8021 18.125C59.8021 18.4875 59.8021 18.7775 59.8021 18.9225C59.8021 19.14 59.8021 19.3575 59.8021 19.72C59.8021 20.59 59.5128 21.17 59.0067 21.605C58.5005 22.04 57.7773 22.2575 56.9096 22.2575ZM56.9096 20.8075C57.1989 20.8075 57.4881 20.735 57.705 20.5175C57.922 20.3 57.9943 20.01 57.9943 19.575C57.9943 19.2125 57.9943 18.9225 57.9943 18.7775C57.9943 18.6325 57.9943 18.3425 57.9943 18.0525C57.9943 17.6175 57.8497 17.3275 57.705 17.11C57.4881 16.8925 57.1989 16.82 56.9096 16.82C56.548 16.82 56.3311 16.8925 56.1142 17.11C55.8972 17.3275 55.8249 17.6175 55.8249 18.0525C55.8249 18.27 55.8249 18.4875 55.8249 18.7775C55.8249 19.14 55.8249 19.3575 55.8249 19.575C55.8249 20.01 55.9695 20.3 56.1142 20.5175C56.2588 20.735 56.548 20.8075 56.9096 20.8075Z" fill="white"/>
<path d="M62.1161 13.195V7.68501C62.1161 7.46751 62.1884 7.25001 62.333 7.10501C62.4776 6.96001 62.6946 6.88751 62.9115 6.88751H67.3226C67.3949 6.88751 67.4672 6.88751 67.4672 6.96001C67.5395 7.03251 67.5395 7.03251 67.5395 7.10501V8.04751C67.5395 8.12001 67.5395 8.19251 67.4672 8.19251C67.4672 8.19251 67.3949 8.26501 67.3226 8.26501H63.2731C63.4177 8.26501 63.5623 8.33751 63.6346 8.41001C63.707 8.48251 63.7793 8.62751 63.7793 8.77251V9.20751C63.7793 9.28001 63.7793 9.35251 63.8516 9.42501C63.9239 9.49751 63.9962 9.49751 64.0685 9.49751H66.6717C66.8164 9.49751 66.8887 9.57001 66.8887 9.71501V10.585C66.8887 10.73 66.8164 10.8025 66.6717 10.8025H63.2731C63.4177 10.8025 63.5623 10.875 63.6346 10.9475C63.707 11.02 63.7793 11.165 63.7793 11.31V11.745C63.7793 11.8175 63.7793 11.89 63.8516 11.9625C63.9239 12.035 63.9962 12.035 64.0685 12.035H67.3949C67.4672 12.035 67.5395 12.035 67.6118 12.1075C67.6841 12.18 67.6841 12.18 67.6841 12.325V13.2675C67.6841 13.34 67.6841 13.4125 67.6118 13.4125C67.5395 13.4125 67.5395 13.485 67.4672 13.485H62.4053C62.333 13.485 62.2607 13.485 62.2607 13.4125C62.1161 13.34 62.1161 13.2675 62.1161 13.195Z" fill="white"/>
<path d="M67.6118 22.1125C67.6118 22.1125 67.5395 22.185 67.4672 22.185H66.1656C65.9486 22.185 65.8763 22.1125 65.804 21.9675L64.8639 20.0825C64.7916 20.01 64.7193 19.9375 64.647 19.9375H63.4177C63.5623 19.9375 63.707 20.01 63.7793 20.0825C63.8516 20.2275 63.9239 20.3 63.9239 20.445V22.04C63.9239 22.1125 63.9239 22.185 63.8516 22.2575C63.8516 22.2575 63.7793 22.33 63.6346 22.33H62.333C62.2607 22.33 62.1884 22.33 62.1884 22.2575C62.1884 22.2575 62.1161 22.185 62.1161 22.1125V16.53C62.1161 16.3125 62.1884 16.095 62.333 15.95C62.4776 15.805 62.6946 15.7325 62.9115 15.7325H64.9363C65.2978 15.7325 65.6594 15.7325 65.9486 15.8775C66.2379 15.95 66.5271 16.095 66.8164 16.24C67.0333 16.385 67.2502 16.675 67.3949 16.8925C67.5395 17.1825 67.6118 17.4725 67.6118 17.9075C67.6118 18.27 67.5395 18.6325 67.3949 18.9225C67.2502 19.2125 66.961 19.43 66.6717 19.6475C66.5994 19.6475 66.5994 19.72 66.5994 19.7925V19.865L67.7564 21.9675V22.04C67.6841 21.9675 67.6841 22.04 67.6118 22.1125ZM65.7317 17.69C65.7317 17.4725 65.6594 17.255 65.5148 17.11C65.3701 16.965 65.1532 16.8925 64.9363 16.8925H63.2731C63.4177 16.8925 63.5623 16.965 63.6346 17.0375C63.707 17.1825 63.7793 17.255 63.7793 17.4V18.125C63.7793 18.1975 63.7793 18.27 63.8516 18.3425C63.9239 18.415 63.9962 18.415 64.0685 18.415H64.8639C65.0809 18.415 65.2978 18.3425 65.4424 18.1975C65.5871 18.125 65.7317 17.98 65.7317 17.69Z" fill="white"/>
<path d="M37.4577 13.195V7.68501C37.4577 7.46751 37.53 7.25001 37.6746 7.10501C37.8192 6.96001 38.0362 6.88751 38.2531 6.88751H42.6641C42.7365 6.88751 42.8088 6.88751 42.8088 6.96001C42.8811 7.03251 42.8811 7.03251 42.8811 7.10501V8.04751C42.8811 8.12001 42.8811 8.19251 42.8088 8.19251C42.8088 8.19251 42.7365 8.26501 42.6641 8.26501H38.6147C38.7593 8.26501 38.9039 8.33751 38.9762 8.41001C39.0485 8.48251 39.1208 8.62751 39.1208 8.77251V9.20751C39.1208 9.28001 39.1209 9.35251 39.1932 9.42501C39.2655 9.49751 39.3378 9.49751 39.4101 9.49751H42.0133C42.158 9.49751 42.2303 9.57001 42.2303 9.71501V10.585C42.2303 10.73 42.158 10.8025 42.0133 10.8025H38.6147C38.7593 10.8025 38.9039 10.875 38.9762 10.9475C39.0485 11.02 39.1208 11.165 39.1208 11.31V11.745C39.1208 11.8175 39.1209 11.89 39.1932 11.9625C39.2655 12.035 39.3378 12.035 39.4101 12.035H42.7365C42.8088 12.035 42.8811 12.035 42.9534 12.1075C43.0257 12.18 43.0257 12.18 43.0257 12.325V13.2675C43.0257 13.34 43.0257 13.4125 42.9534 13.4125C42.8811 13.4125 42.8811 13.485 42.8088 13.485H37.7469C37.6746 13.485 37.6023 13.485 37.6023 13.4125C37.4577 13.34 37.4577 13.2675 37.4577 13.195Z" fill="white"/>
<path d="M37.4577 21.9675V16.385C37.4577 16.1675 37.53 15.95 37.6746 15.805C37.8192 15.66 38.0362 15.5875 38.2531 15.5875H42.6641C42.7365 15.5875 42.8088 15.5875 42.8088 15.66C42.8811 15.7325 42.8811 15.7325 42.8811 15.805V16.7475C42.8811 16.82 42.8811 16.8925 42.8088 16.8925C42.8088 16.8925 42.7365 16.965 42.6641 16.965H38.6147C38.7593 16.965 38.9039 17.0375 38.9762 17.11C39.0485 17.1825 39.1208 17.3275 39.1208 17.4725V17.9075C39.1208 17.98 39.1209 18.0525 39.1932 18.125C39.2655 18.1975 39.3378 18.1975 39.4101 18.1975H42.0133C42.158 18.1975 42.2303 18.27 42.2303 18.415V19.285C42.2303 19.43 42.158 19.5025 42.0133 19.5025H38.6147C38.7593 19.5025 38.9039 19.575 38.9762 19.6475C39.0485 19.72 39.1208 19.865 39.1208 20.01V20.445C39.1208 20.5175 39.1209 20.59 39.1932 20.6625C39.2655 20.735 39.3378 20.735 39.4101 20.735H42.7365C42.8088 20.735 42.8811 20.735 42.9534 20.8075C43.0257 20.88 43.0257 20.88 43.0257 21.025V21.9675C43.0257 22.04 43.0257 22.1125 42.9534 22.1125C42.8811 22.1125 42.8811 22.185 42.8088 22.185H37.7469C37.6746 22.185 37.6023 22.185 37.6023 22.1125C37.4577 22.04 37.4577 21.9675 37.4577 21.9675Z" fill="white"/>
<path d="M69.7812 13.195V7.685C69.7812 7.4675 69.8535 7.25 69.9981 7.105C70.1427 6.96 70.3597 6.8875 70.5766 6.8875H70.8659C70.9382 6.8875 71.0105 6.8875 71.0828 6.8875C71.1551 6.8875 71.2997 7.0325 71.372 7.105C71.7336 7.685 74.1199 10.3675 74.1199 10.3675C74.1199 10.3675 74.1199 10.3675 74.1922 10.3675C74.1922 10.3675 74.1922 10.3675 74.1922 10.295V7.6125C74.1922 7.4675 74.1922 7.395 74.2645 7.25C74.3368 7.1775 74.3368 7.0325 74.4815 7.0325C74.5538 6.96 74.6261 6.8875 74.6984 6.8875C74.7707 6.8875 74.9153 6.815 74.9876 6.815H75.6384C75.7108 6.815 75.7831 6.815 75.7831 6.8875C75.7831 6.96 75.8554 6.96 75.8554 7.105V13.195C75.8554 13.2675 75.8554 13.34 75.7831 13.34C75.7831 13.4125 75.7108 13.4125 75.6384 13.4125H74.4815C74.3368 13.4125 74.2645 13.34 74.1922 13.195C73.8306 12.615 71.4443 10.005 71.372 9.9325C71.372 9.9325 71.2997 9.9325 71.2997 10.005V13.1225C71.2997 13.195 71.2997 13.2675 71.2274 13.34C71.2274 13.34 71.1551 13.4125 71.0105 13.4125H69.8535C69.7812 13.4125 69.7089 13.4125 69.7089 13.34C69.7812 13.34 69.7812 13.2675 69.7812 13.195Z" fill="white"/>
<path d="M71.9505 21.895V20.2275C71.9505 20.155 71.9505 20.01 71.9505 19.9375C71.9505 19.865 71.8782 19.72 71.8782 19.72L69.8535 15.95V15.8775C69.8535 15.805 69.8535 15.805 69.9258 15.7325C69.9258 15.7325 69.9981 15.66 70.0704 15.66H71.2997C71.372 15.66 71.4443 15.66 71.5166 15.7325C71.5889 15.7325 71.6613 15.805 71.6613 15.8775C71.8782 16.3125 72.0951 16.675 72.3121 16.965C72.3844 17.1825 72.529 17.3275 72.529 17.4C72.6013 17.545 72.6736 17.6175 72.7459 17.69C72.8182 17.7625 72.8183 17.9075 72.8906 17.9075C72.8906 17.98 72.9629 18.0525 72.9629 18.0525C72.9629 18.0525 72.9629 18.0525 73.0352 18.0525C73.0352 18.0525 73.0352 17.98 73.1075 17.9075C73.1075 17.835 73.1798 17.7625 73.2521 17.6175C73.3244 17.545 73.3967 17.4 73.4691 17.255C73.5414 17.11 73.6137 16.965 73.686 16.82C73.9029 16.53 74.0476 16.095 74.3368 15.7325C74.4091 15.5875 74.5537 15.515 74.6984 15.515H75.9277C76 15.515 76 15.515 76.0723 15.5875C76.0723 15.5875 76.1446 15.66 76.1446 15.7325V15.805C75.783 16.53 75.4215 17.11 75.1322 17.6175C74.9153 17.98 74.843 18.1975 74.6984 18.415C74.6261 18.6325 74.4814 18.7775 74.4091 18.9225C74.3368 19.0675 74.2645 19.2125 74.1922 19.3575C74.1199 19.5025 74.1199 19.575 74.0476 19.575C74.0476 19.6475 73.9752 19.72 73.9752 19.865C73.9752 19.9375 73.9752 20.0825 73.9752 20.155V21.895C73.9752 21.9675 73.9752 22.04 73.9029 22.1125C73.9029 22.1125 73.8306 22.185 73.686 22.185H72.3844C72.3121 22.185 72.2398 22.185 72.2398 22.1125C72.0228 22.04 71.9505 21.9675 71.9505 21.895Z" fill="white"/>
<path d="M35.1437 15.5875C35.216 15.5875 35.2883 15.5875 35.2883 15.66C35.3606 15.7325 35.3606 15.7325 35.3606 15.805V21.895C35.3606 21.9675 35.3606 22.04 35.2883 22.04C35.216 22.04 35.216 22.1125 35.1437 22.1125H33.9867C33.9144 22.1125 33.842 22.1125 33.842 22.04C33.842 22.04 33.7697 21.9675 33.7697 21.895V18.705C33.7697 18.705 33.7697 18.6325 33.6974 18.6325L32.7574 20.3C32.685 20.445 32.5404 20.5175 32.3958 20.5175H31.8173C31.6727 20.5175 31.6004 20.445 31.4557 20.3L30.5157 18.6325C30.5157 18.6325 30.4434 18.6325 30.4434 18.705V21.9675C30.4434 22.04 30.4434 22.1125 30.3711 22.185C30.3711 22.185 30.2988 22.2575 30.1541 22.2575H28.9971C28.9248 22.2575 28.8525 22.2575 28.7802 22.185C28.7079 22.185 28.7079 22.1125 28.7079 21.9675V16.385C28.7079 16.24 28.7079 16.1675 28.7802 16.0225C28.8525 15.95 28.9248 15.805 28.9971 15.805C29.0694 15.805 29.1418 15.66 29.2141 15.66C29.2864 15.66 29.3587 15.5875 29.431 15.5875H29.9372C30.0818 15.5875 30.2264 15.66 30.2988 15.805L31.8896 18.6325C31.8896 18.6325 31.8896 18.6325 31.9619 18.6325L33.5528 15.805C33.6251 15.66 33.7697 15.5875 33.9144 15.5875H35.1437Z" fill="white"/>
<path d="M35.2883 6.8875C35.216 6.815 35.216 6.815 35.0714 6.815H34.3482C34.2759 6.815 34.1313 6.815 34.059 6.8875C33.9867 6.96 33.8421 6.96 33.8421 7.0325C33.7697 7.105 33.6974 7.1775 33.6251 7.25C33.5528 7.3225 33.5528 7.4675 33.5528 7.6125V8.9175V9.425H30.8773C30.805 9.425 30.7326 9.425 30.6603 9.3525C30.588 9.28 30.588 9.2075 30.588 9.135V7.105C30.588 7.0325 30.588 6.96 30.5157 6.8875C30.4434 6.815 30.4434 6.815 30.2988 6.815H29.5756C29.3587 6.815 29.1418 6.8875 28.9971 7.0325C28.8525 7.1775 28.7802 7.395 28.7802 7.6125V13.1225C28.7802 13.195 28.7802 13.2675 28.8525 13.2675C28.8525 13.2675 28.9248 13.34 28.9971 13.34H30.3711C30.4434 13.34 30.5157 13.34 30.588 13.2675C30.588 13.2675 30.6603 13.195 30.6603 13.05V11.165C30.6603 11.02 30.588 10.9475 30.5157 10.875C30.4434 10.8025 30.2988 10.73 30.2265 10.73H33.6974V10.875V13.1225C33.6974 13.195 33.6974 13.2675 33.7697 13.2675C33.8421 13.2675 33.8421 13.34 33.9144 13.34H35.216C35.2883 13.34 35.3606 13.34 35.4329 13.2675C35.4329 13.2675 35.5052 13.195 35.5052 13.05V7.0325C35.3606 6.96 35.2883 6.8875 35.2883 6.8875Z" fill="white"/>
<path d="M15.9087 18.6325C13.5947 16.7475 8.46051 14.645 8.46051 8.99002C8.46051 4.20502 10.6299 1.37752 12.0038 0.14502C11.7869 0.21752 11.6422 0.29002 11.4976 0.36252L1.44624 6.16252C0.578497 6.67002 0 7.68502 0 8.70002V20.3C0 21.3875 0.578497 22.33 1.44624 22.8375L10.9914 28.3475C11.0637 27.1875 10.9191 25.52 9.11132 23.49C6.5804 20.5175 2.89248 20.5175 2.89248 16.6025C2.89248 12.6875 6.0019 11.31 6.0019 11.31C4.91722 19.575 12.5823 18.4875 13.5224 23.1275C14.0285 26.0275 13.0162 27.84 12.0761 28.855C12.7992 29.0725 13.667 29 14.3901 28.565L16.9933 27.115C17.5718 24.795 18.4396 20.6625 15.9087 18.6325Z" fill="white"/>
<path d="M24.4415 6.1625L14.4624 0.435C13.9562 0.145 13.4501 0 12.9439 0C12.3654 11.6 23.3568 11.8175 23.3568 18.705C23.3568 20.9525 22.706 22.765 21.9106 24.2875L24.4415 22.8375C25.3816 22.33 25.8877 21.315 25.8877 20.3V8.7C25.8877 7.685 25.3092 6.67 24.4415 6.1625Z" fill="white"/>
<path d="M50.4015 7.4675C50.1123 6.8875 48.883 6.815 48.3768 6.815C47.8706 6.815 46.6413 6.8875 46.352 7.4675C46.1351 7.9025 44.7612 13.1225 44.7612 13.1225V13.195C44.7612 13.2675 44.7612 13.34 44.8335 13.34C44.9058 13.34 44.9058 13.4125 44.9781 13.4125H46.1351C46.2074 13.4125 46.352 13.4125 46.352 13.34C46.4243 13.2675 46.4243 13.195 46.4967 13.1225C46.4967 13.1225 46.6413 12.615 46.7859 11.9625H49.823C49.9676 12.615 50.1123 13.1225 50.1123 13.1225C50.1123 13.195 50.1846 13.2675 50.2569 13.34C50.3292 13.4125 50.4015 13.4125 50.4738 13.4125H51.6308C51.7031 13.4125 51.7031 13.4125 51.7754 13.34C51.7754 13.34 51.8477 13.2675 51.8477 13.195V13.1225C51.9924 13.1225 50.6908 7.9025 50.4015 7.4675ZM47.2198 10.6575C47.509 9.57 47.7983 8.4825 47.8706 8.3375C47.9429 8.1925 48.883 8.1925 48.9553 8.3375C49.0276 8.4825 49.3168 9.57 49.6061 10.6575H47.2198Z" fill="white"/>
<path d="M54.8126 7.105C54.8126 7.0325 54.7403 6.96 54.668 6.8875C54.5956 6.815 54.5233 6.815 54.451 6.815H53.294C53.2217 6.815 53.2217 6.815 53.1494 6.8875C53.1494 6.8875 53.0771 6.96 53.0771 7.0325V7.105C53.0771 7.105 54.451 12.47 54.668 12.905C54.9572 13.485 58.4282 13.485 58.7174 12.905C58.9344 12.47 60.3083 7.105 60.3083 7.105V7.0325C60.3083 6.96 60.3083 6.8875 60.236 6.8875C60.1637 6.8875 60.1637 6.815 60.0914 6.815H58.9344C58.8621 6.815 58.7174 6.815 58.7174 6.8875C58.6451 6.96 58.6451 7.0325 58.5728 7.105C58.5728 7.105 57.3435 11.6 57.2712 11.89C57.1989 12.035 56.2588 12.035 56.1865 11.89C56.0419 11.6725 54.8126 7.105 54.8126 7.105Z" fill="white"/>
</svg>
